<svg xmlns="http://www.w3.org/2000/svg" viewBox="0 0 512 512">
  <defs>
    <linearGradient id="nebulaGradient" x1="0%" y1="0%" x2="100%" y2="100%">
      <stop offset="0%" style="stop-color:#8a2be2;stop-opacity:1" />
      <stop offset="50%" style="stop-color:#8a5cf5;stop-opacity:1" />
      <stop offset="100%" style="stop-color:#4169e1;stop-opacity:1" />
    </linearGradient>
    <radialGradient id="bgGradient" cx="50%" cy="50%" r="70%">
      <stop offset="0%" style="stop-color:#1a1b3a;stop-opacity:1" />
      <stop offset="100%" style="stop-color:#0c0d1d;stop-opacity:1" />
    </radialGradient>
  </defs>
  <rect width="512" height="512" fill="url(#bgGradient)" rx="64"/>
  <!-- MDI mdi-orbit icon path scaled and centered -->
  <g transform="translate(56, 56) scale(1.67)">
    <path fill="url(#nebulaGradient)" d="M8.11,1.75C9.3,1.25 10.62,1 12,1C13.38,1 14.7,1.25 15.89,1.75L15.03,3.55C14.08,3.18 13.07,3 12,3C10.93,3 9.92,3.18 8.97,3.55L8.11,1.75M15.89,22.25C14.7,22.75 13.38,23 12,23C10.62,23 9.3,22.75 8.11,22.25L8.97,20.45C9.92,20.82 10.93,21 12,21C13.07,21 14.08,20.82 15.03,20.45L15.89,22.25M1.75,8.11L3.55,8.97C3.18,9.92 3,10.93 3,12C3,13.07 3.18,14.08 3.55,15.03L1.75,15.89C1.25,14.7 1,13.38 1,12C1,10.62 1.25,9.3 1.75,8.11M22.25,15.89L20.45,15.03C20.82,14.08 21,13.07 21,12C21,10.93 20.82,9.92 20.45,8.97L22.25,8.11C22.75,9.3 23,10.62 23,12C23,13.38 22.75,14.7 22.25,15.89M16.9,5.44C18.14,6.56 19.1,7.96 19.67,9.54L17.84,10.3C17.36,9 16.56,7.87 15.53,7L16.9,5.44M19.67,14.46C19.1,16.04 18.14,17.44 16.9,18.56L15.53,17C16.56,16.13 17.36,15 17.84,13.7L19.67,14.46M5.1,5.44L6.47,7C5.44,7.87 4.64,9 4.16,10.3L2.33,9.54C2.9,7.96 3.86,6.56 5.1,5.44M4.16,13.7C4.64,15 5.44,16.13 6.47,17L5.1,18.56C3.86,17.44 2.9,16.04 2.33,14.46L4.16,13.7M14,12A2,2 0 0,1 12,14A2,2 0 0,1 10,12A2,2 0 0,1 12,10A2,2 0 0,1 14,12Z"/>
  </g>
</svg>
